STARTFONT 2.1
FONT -Fondu-ET Bembo SemiBold OSF-Medium-R-Normal--13-120-75-75-P-70-MacRoman-1
SIZE 12 75 75
FONTBOUNDINGBOX 16 17 -2 -4
COMMENT Created by Fondu from a mac NFNT/FONT resource
STARTPROPERTIES 17
FOUNDRY "Fondu"
FAMILY_NAME "ET Bembo SemiBold OSF"
WEIGHT_NAME "Medium"
SLANT "R"
SETWIDTH_NAME "Normal"
ADD_STYLE_NAME ""
PIXEL_SIZE 13
POINT_SIZE 120
RESOLUTION_X 75
RESOLUTION_Y 75
SPACING "P"
AVERAGE_WIDTH 70
CHARSET_REGISTRY "MacRoman"
CHARSET_ENCODING "1"
FONT_ASCENT 13
FONT_DESCENT 4
FACE_NAME "ET Bembo SemiBold OSF"
ENDPROPERTIES
CHARS 206
STARTCHAR space
ENCODING 32
SWIDTH 245 0
DWIDTH 3 0
BBX 0 0 0 -4
BITMAP
ENDCHAR
STARTCHAR exclam
ENCODING 33
SWIDTH 272 0
DWIDTH 4 0
BBX 2 9 1 0
BITMAP
80
80
80
80
80
80
80
00
C0
ENDCHAR
STARTCHAR quotedbl
ENCODING 34
SWIDTH 425 0
DWIDTH 6 0
BBX 5 4 0 5
BITMAP
58
58
58
40
ENDCHAR
STARTCHAR numbersign
ENCODING 35
SWIDTH 699 0
DWIDTH 9 0
BBX 9 9 0 0
BITMAP
1100
1200
7F00
3200
2200
2200
FF00
2400
0400
ENDCHAR
STARTCHAR dollar
ENCODING 36
SWIDTH 479 0
DWIDTH 6 0
BBX 6 10 0 -1
BITMAP
30
30
78
70
70
38
3C
F4
78
30
ENDCHAR
STARTCHAR percent
ENCODING 37
SWIDTH 696 0
DWIDTH 9 0
BBX 9 9 0 -1
BITMAP
7200
9400
9400
7800
0800
1700
1900
2500
4200
ENDCHAR
STARTCHAR ampersand
ENCODING 38
SWIDTH 763 0
DWIDTH 10 0
BBX 10 8 0 0
BITMAP
3800
2400
39C0
3900
4D00
4600
4600
7B80
ENDCHAR
STARTCHAR quotesingle
ENCODING 39
SWIDTH 185 0
DWIDTH 4 0
BBX 3 3 0 6
BITMAP
60
20
40
ENDCHAR
STARTCHAR parenleft
ENCODING 40
SWIDTH 326 0
DWIDTH 4 0
BBX 4 12 1 -3
BITMAP
20
40
40
80
80
80
80
80
80
40
40
20
ENDCHAR
STARTCHAR parenright
ENCODING 41
SWIDTH 316 0
DWIDTH 4 0
BBX 5 12 -1 -3
BITMAP
40
20
20
10
10
10
10
10
10
20
20
40
ENDCHAR
STARTCHAR asterisk
ENCODING 42
SWIDTH 534 0
DWIDTH 7 0
BBX 6 6 1 3
BITMAP
20
A8
F8
70
A8
20
ENDCHAR
STARTCHAR plus
ENCODING 43
SWIDTH 698 0
DWIDTH 9 0
BBX 9 7 0 1
BITMAP
0800
0800
0800
7F00
0800
0800
0800
ENDCHAR
STARTCHAR comma
ENCODING 44
SWIDTH 251 0
DWIDTH 3 0
BBX 3 3 0 -2
BITMAP
40
40
40
ENDCHAR
STARTCHAR hyphen
ENCODING 45
SWIDTH 435 0
DWIDTH 6 0
BBX 6 1 0 2
BITMAP
30
ENDCHAR
STARTCHAR period
ENCODING 46
SWIDTH 217 0
DWIDTH 3 0
BBX 3 1 0 0
BITMAP
40
ENDCHAR
STARTCHAR slash
ENCODING 47
SWIDTH 479 0
DWIDTH 6 0
BBX 6 9 0 0
BITMAP
04
08
08
10
10
20
20
40
40
ENDCHAR
STARTCHAR zero
ENCODING 48
SWIDTH 489 0
DWIDTH 6 0
BBX 7 6 0 0
BITMAP
38
44
44
44
44
78
ENDCHAR
STARTCHAR one
ENCODING 49
SWIDTH 388 0
DWIDTH 5 0
BBX 5 6 0 0
BITMAP
20
60
20
20
20
70
ENDCHAR
STARTCHAR two
ENCODING 50
SWIDTH 481 0
DWIDTH 6 0
BBX 6 6 0 0
BITMAP
30
08
08
10
24
78
ENDCHAR
STARTCHAR three
ENCODING 51
SWIDTH 407 0
DWIDTH 5 0
BBX 5 9 0 -3
BITMAP
30
10
10
20
10
10
10
50
20
ENDCHAR
STARTCHAR four
ENCODING 52
SWIDTH 489 0
DWIDTH 6 0
BBX 6 7 0 -2
BITMAP
10
30
50
50
FC
10
10
ENDCHAR
STARTCHAR five
ENCODING 53
SWIDTH 437 0
DWIDTH 6 0
BBX 5 8 0 -2
BITMAP
18
20
60
30
10
08
10
70
ENDCHAR
STARTCHAR six
ENCODING 54
SWIDTH 503 0
DWIDTH 7 0
BBX 6 9 0 -1
BITMAP
0C
30
60
58
44
44
44
28
10
ENDCHAR
STARTCHAR seven
ENCODING 55
SWIDTH 489 0
DWIDTH 6 0
BBX 6 8 0 -2
BITMAP
7C
88
08
08
10
10
20
20
ENDCHAR
STARTCHAR eight
ENCODING 56
SWIDTH 464 0
DWIDTH 6 0
BBX 6 9 0 -1
BITMAP
38
48
48
30
38
48
48
68
10
ENDCHAR
STARTCHAR nine
ENCODING 57
SWIDTH 489 0
DWIDTH 6 0
BBX 6 8 0 -2
BITMAP
30
48
CC
4C
4C
38
10
60
ENDCHAR
STARTCHAR colon
ENCODING 58
SWIDTH 257 0
DWIDTH 3 0
BBX 3 5 0 0
BITMAP
40
00
00
00
40
ENDCHAR
STARTCHAR semicolon
ENCODING 59
SWIDTH 230 0
DWIDTH 3 0
BBX 3 7 0 -2
BITMAP
40
00
00
00
40
40
40
ENDCHAR
STARTCHAR less
ENCODING 60
SWIDTH 698 0
DWIDTH 9 0
BBX 9 7 0 1
BITMAP
0100
0600
1800
6000
3800
0E00
0100
ENDCHAR
STARTCHAR equal
ENCODING 61
SWIDTH 698 0
DWIDTH 9 0
BBX 9 4 0 2
BITMAP
7F00
0000
0000
7F00
ENDCHAR
STARTCHAR greater
ENCODING 62
SWIDTH 698 0
DWIDTH 9 0
BBX 9 7 0 1
BITMAP
4000
3000
0E00
0300
0600
3800
4000
ENDCHAR
STARTCHAR question
ENCODING 63
SWIDTH 362 0
DWIDTH 5 0
BBX 5 9 0 0
BITMAP
60
70
10
10
70
40
00
00
60
ENDCHAR
STARTCHAR at
ENCODING 64
SWIDTH 960 0
DWIDTH 12 0
BBX 11 11 1 -2
BITMAP
1F00
2080
4540
4B40
9240
9240
9680
5B40
4080
3100
0E00
ENDCHAR
STARTCHAR A
ENCODING 65
SWIDTH 711 0
DWIDTH 9 0
BBX 10 9 0 0
BITMAP
0800
0C00
1C00
1400
1600
2A00
2200
4300
E780
ENDCHAR
STARTCHAR B
ENCODING 66
SWIDTH 656 0
DWIDTH 9 0
BBX 8 9 0 0
BITMAP
78
26
23
22
3E
23
23
23
FE
ENDCHAR
STARTCHAR C
ENCODING 67
SWIDTH 762 0
DWIDTH 10 0
BBX 10 10 0 -1
BITMAP
0E00
3180
6080
4000
4000
4000
6000
2080
1B00
0400
ENDCHAR
STARTCHAR D
ENCODING 68
SWIDTH 773 0
DWIDTH 10 0
BBX 10 9 0 0
BITMAP
3800
6700
6180
6080
6080
6080
6180
6100
FE00
ENDCHAR
STARTCHAR E
ENCODING 69
SWIDTH 619 0
DWIDTH 8 0
BBX 8 8 0 0
BITMAP
3E
22
22
3E
22
20
21
FE
ENDCHAR
STARTCHAR F
ENCODING 70
SWIDTH 543 0
DWIDTH 7 0
BBX 7 8 0 0
BITMAP
7C
20
20
3C
20
20
20
70
ENDCHAR
STARTCHAR G
ENCODING 71
SWIDTH 763 0
DWIDTH 10 0
BBX 10 10 0 -1
BITMAP
0E00
3180
6080
4000
4000
4380
6180
6180
3B00
0400
ENDCHAR
STARTCHAR H
ENCODING 72
SWIDTH 788 0
DWIDTH 10 0
BBX 11 8 0 0
BITMAP
6180
2180
2180
3F80
2180
2180
2180
F3C0
ENDCHAR
STARTCHAR I
ENCODING 73
SWIDTH 363 0
DWIDTH 5 0
BBX 5 8 0 0
BITMAP
20
20
20
20
20
20
20
70
ENDCHAR
STARTCHAR J
ENCODING 74
SWIDTH 324 0
DWIDTH 4 0
BBX 6 12 -2 -4
BITMAP
18
18
18
18
18
18
18
18
18
10
50
60
ENDCHAR
STARTCHAR K
ENCODING 75
SWIDTH 740 0
DWIDTH 10 0
BBX 10 8 0 0
BITMAP
6200
2400
2800
3800
2C00
2400
2200
F780
ENDCHAR
STARTCHAR L
ENCODING 76
SWIDTH 595 0
DWIDTH 8 0
BBX 8 8 0 0
BITMAP
70
20
20
20
20
20
22
FE
ENDCHAR
STARTCHAR M
ENCODING 77
SWIDTH 942 0
DWIDTH 12 0
BBX 12 8 0 0
BITMAP
3040
30C0
3940
2940
4960
4E60
4660
E4F0
ENDCHAR
STARTCHAR N
ENCODING 78
SWIDTH 834 0
DWIDTH 11 0
BBX 11 8 0 0
BITMAP
3080
3880
2880
2480
2680
2380
2180
7080
ENDCHAR
STARTCHAR O
ENCODING 79
SWIDTH 827 0
DWIDTH 11 0
BBX 11 10 0 -1
BITMAP
0E00
3180
6080
40C0
40C0
40C0
60C0
2080
1B00
0400
ENDCHAR
STARTCHAR P
ENCODING 80
SWIDTH 577 0
DWIDTH 8 0
BBX 7 9 0 0
BITMAP
78
A6
26
26
24
38
20
20
78
ENDCHAR
STARTCHAR Q
ENCODING 81
SWIDTH 822 0
DWIDTH 11 0
BBX 11 12 0 -3
BITMAP
0E00
3180
6080
40C0
40C0
40C0
40C0
6080
1300
0F00
0180
00C0
ENDCHAR
STARTCHAR R
ENCODING 82
SWIDTH 696 0
DWIDTH 9 0
BBX 9 9 0 0
BITMAP
7800
2600
2200
2200
2600
3C00
2600
2200
F300
ENDCHAR
STARTCHAR S
ENCODING 83
SWIDTH 513 0
DWIDTH 7 0
BBX 6 10 0 -1
BITMAP
30
48
40
60
38
1C
0C
44
68
10
ENDCHAR
STARTCHAR T
ENCODING 84
SWIDTH 681 0
DWIDTH 9 0
BBX 9 8 0 0
BITMAP
FF00
8800
0800
0800
0800
0800
0800
3E00
ENDCHAR
STARTCHAR U
ENCODING 85
SWIDTH 815 0
DWIDTH 11 0
BBX 11 8 0 0
BITMAP
6080
6080
6080
6080
2080
2080
3080
1F00
ENDCHAR
STARTCHAR V
ENCODING 86
SWIDTH 761 0
DWIDTH 10 0
BBX 10 8 0 0
BITMAP
6180
2100
3100
1200
1A00
1A00
0C00
0C00
ENDCHAR
STARTCHAR W
ENCODING 87
SWIDTH 1086 0
DWIDTH 14 0
BBX 14 8 0 0
BITMAP
6788
2310
3310
1120
1BA0
0AA0
0CC0
0C40
ENDCHAR
STARTCHAR X
ENCODING 88
SWIDTH 785 0
DWIDTH 10 0
BBX 10 8 0 0
BITMAP
7100
1200
1C00
0C00
0E00
1200
2300
F3C0
ENDCHAR
STARTCHAR Y
ENCODING 89
SWIDTH 728 0
DWIDTH 9 0
BBX 10 8 0 0
BITMAP
6100
3100
1200
1C00
0C00
0C00
0C00
1E00
ENDCHAR
STARTCHAR Z
ENCODING 90
SWIDTH 705 0
DWIDTH 9 0
BBX 9 8 0 0
BITMAP
7F00
4600
0C00
0800
1800
3000
6100
7F00
ENDCHAR
STARTCHAR bracketleft
ENCODING 91
SWIDTH 337 0
DWIDTH 4 0
BBX 3 12 1 -3
BITMAP
C0
80
80
80
80
80
80
80
80
80
80
C0
ENDCHAR
STARTCHAR backslash
ENCODING 92
SWIDTH 479 0
DWIDTH 6 0
BBX 6 9 0 0
BITMAP
40
40
60
20
30
10
18
08
0C
ENDCHAR
STARTCHAR bracketright
ENCODING 93
SWIDTH 343 0
DWIDTH 4 0
BBX 3 12 0 -3
BITMAP
E0
20
20
20
20
20
20
20
20
20
20
E0
ENDCHAR
STARTCHAR asciicircum
ENCODING 94
SWIDTH 491 0
DWIDTH 6 0
BBX 7 5 0 4
BITMAP
10
30
48
44
84
ENDCHAR
STARTCHAR underscore
ENCODING 95
SWIDTH 523 0
DWIDTH 7 0
BBX 8 1 -1 -3
BITMAP
7F
ENDCHAR
STARTCHAR grave
ENCODING 96
SWIDTH 348 0
DWIDTH 4 0
BBX 3 2 0 6
BITMAP
40
60
ENDCHAR
STARTCHAR a
ENCODING 97
SWIDTH 414 0
DWIDTH 5 0
BBX 6 6 0 0
BITMAP
20
50
10
30
D0
F8
ENDCHAR
STARTCHAR b
ENCODING 98
SWIDTH 491 0
DWIDTH 6 0
BBX 6 9 0 0
BITMAP
C0
40
40
50
6C
44
44
44
78
ENDCHAR
STARTCHAR c
ENCODING 99
SWIDTH 432 0
DWIDTH 6 0
BBX 6 6 0 0
BITMAP
10
68
40
C0
40
70
ENDCHAR
STARTCHAR d
ENCODING 100
SWIDTH 513 0
DWIDTH 7 0
BBX 7 9 0 0
BITMAP
1C
0C
0C
3C
4C
CC
8C
CC
7C
ENDCHAR
STARTCHAR e
ENCODING 101
SWIDTH 432 0
DWIDTH 6 0
BBX 6 6 0 0
BITMAP
30
48
F8
80
40
70
ENDCHAR
STARTCHAR f
ENCODING 102
SWIDTH 321 0
DWIDTH 4 0
BBX 6 9 0 0
BITMAP
3C
40
40
40
70
40
40
40
F0
ENDCHAR
STARTCHAR g
ENCODING 103
SWIDTH 483 0
DWIDTH 6 0
BBX 6 9 0 -3
BITMAP
20
5C
48
48
70
78
4C
84
78
ENDCHAR
STARTCHAR h
ENCODING 104
SWIDTH 542 0
DWIDTH 7 0
BBX 7 9 0 0
BITMAP
C0
40
40
58
6C
44
44
44
EE
ENDCHAR
STARTCHAR i
ENCODING 105
SWIDTH 266 0
DWIDTH 3 0
BBX 4 9 0 0
BITMAP
40
40
00
40
40
40
40
40
E0
ENDCHAR
STARTCHAR j
ENCODING 106
SWIDTH 247 0
DWIDTH 3 0
BBX 5 11 -2 -3
BITMAP
10
00
10
10
10
10
10
10
10
10
60
ENDCHAR
STARTCHAR k
ENCODING 107
SWIDTH 518 0
DWIDTH 7 0
BBX 7 9 0 0
BITMAP
C0
40
40
5C
58
60
70
58
EC
ENDCHAR
STARTCHAR l
ENCODING 108
SWIDTH 272 0
DWIDTH 4 0
BBX 4 9 0 0
BITMAP
C0
40
40
40
40
40
40
40
E0
ENDCHAR
STARTCHAR m
ENCODING 109
SWIDTH 825 0
DWIDTH 11 0
BBX 11 6 0 0
BITMAP
4900
7680
4480
4480
4480
EFC0
ENDCHAR
STARTCHAR n
ENCODING 110
SWIDTH 523 0
DWIDTH 7 0
BBX 7 6 0 0
BITMAP
48
7C
44
44
44
EE
ENDCHAR
STARTCHAR o
ENCODING 111
SWIDTH 518 0
DWIDTH 7 0
BBX 7 7 0 -1
BITMAP
10
6C
44
C4
44
68
10
ENDCHAR
STARTCHAR p
ENCODING 112
SWIDTH 503 0
DWIDTH 7 0
BBX 7 10 0 -4
BITMAP
40
FC
44
44
44
78
40
40
40
E0
ENDCHAR
STARTCHAR q
ENCODING 113
SWIDTH 504 0
DWIDTH 7 0
BBX 7 10 0 -4
BITMAP
14
6C
4C
CC
4C
7C
0C
0C
0C
1C
ENDCHAR
STARTCHAR r
ENCODING 114
SWIDTH 350 0
DWIDTH 5 0
BBX 5 5 0 0
BITMAP
70
40
40
40
E0
ENDCHAR
STARTCHAR s
ENCODING 115
SWIDTH 314 0
DWIDTH 4 0
BBX 4 6 0 0
BITMAP
60
80
40
60
90
60
ENDCHAR
STARTCHAR t
ENCODING 116
SWIDTH 319 0
DWIDTH 4 0
BBX 4 7 0 0
BITMAP
40
70
40
40
40
40
60
ENDCHAR
STARTCHAR u
ENCODING 117
SWIDTH 534 0
DWIDTH 7 0
BBX 7 6 0 0
BITMAP
4C
44
44
44
44
7E
ENDCHAR
STARTCHAR v
ENCODING 118
SWIDTH 516 0
DWIDTH 7 0
BBX 7 5 0 0
BITMAP
44
28
28
30
10
ENDCHAR
STARTCHAR w
ENCODING 119
SWIDTH 767 0
DWIDTH 10 0
BBX 10 5 0 0
BITMAP
4C80
6C80
2F00
3300
1200
ENDCHAR
STARTCHAR x
ENCODING 120
SWIDTH 522 0
DWIDTH 7 0
BBX 7 5 0 0
BITMAP
6C
30
10
28
CC
ENDCHAR
STARTCHAR y
ENCODING 121
SWIDTH 488 0
DWIDTH 6 0
BBX 7 8 0 -3
BITMAP
40
68
28
30
10
20
20
60
ENDCHAR
STARTCHAR z
ENCODING 122
SWIDTH 410 0
DWIDTH 5 0
BBX 6 5 0 0
BITMAP
F8
B0
20
40
F8
ENDCHAR
STARTCHAR braceleft
ENCODING 123
SWIDTH 501 0
DWIDTH 7 0
BBX 5 12 1 -3
BITMAP
20
20
20
20
20
40
40
20
20
20
20
20
ENDCHAR
STARTCHAR bar
ENCODING 124
SWIDTH 534 0
DWIDTH 7 0
BBX 1 11 3 0
BITMAP
80
80
80
80
80
80
80
80
80
80
80
ENDCHAR
STARTCHAR braceright
ENCODING 125
SWIDTH 501 0
DWIDTH 7 0
BBX 5 12 1 -3
BITMAP
40
20
20
20
20
20
20
20
20
20
20
40
ENDCHAR
STARTCHAR asciitilde
ENCODING 126
SWIDTH 567 0
DWIDTH 7 0
BBX 8 2 0 3
BITMAP
7A
8C
ENDCHAR
STARTCHAR Adieresis
ENCODING 128
SWIDTH 711 0
DWIDTH 9 0
BBX 10 11 0 0
BITMAP
1600
1400
0800
0C00
1C00
1400
1600
2A00
2200
4300
E780
ENDCHAR
STARTCHAR Aring
ENCODING 129
SWIDTH 711 0
DWIDTH 9 0
BBX 10 12 0 0
BITMAP
1C00
1400
0800
0800
0C00
1C00
1400
1600
2A00
2200
4300
E780
ENDCHAR
STARTCHAR Ccedilla
ENCODING 130
SWIDTH 762 0
DWIDTH 10 0
BBX 10 12 0 -3
BITMAP
0E00
3180
6080
4000
4000
4000
6000
2080
1B00
0C00
0C00
0400
ENDCHAR
STARTCHAR Eacute
ENCODING 131
SWIDTH 619 0
DWIDTH 8 0
BBX 8 12 0 0
BITMAP
08
08
10
1C
22
20
22
3E
22
20
21
FE
ENDCHAR
STARTCHAR Ntilde
ENCODING 132
SWIDTH 834 0
DWIDTH 11 0
BBX 11 11 0 0
BITMAP
1C00
1600
0000
3080
3880
2880
2480
2680
2380
2180
7080
ENDCHAR
STARTCHAR Odieresis
ENCODING 133
SWIDTH 827 0
DWIDTH 11 0
BBX 11 12 0 -1
BITMAP
0A00
1A00
0E00
3180
6080
40C0
40C0
40C0
60C0
2080
1B00
0400
ENDCHAR
STARTCHAR Udieresis
ENCODING 134
SWIDTH 815 0
DWIDTH 11 0
BBX 11 11 0 0
BITMAP
1A00
1B00
0000
2080
2080
2080
2080
2080
2080
3080
1F00
ENDCHAR
STARTCHAR aacute
ENCODING 135
SWIDTH 414 0
DWIDTH 5 0
BBX 6 9 0 0
BITMAP
10
30
20
20
50
10
30
D0
F8
ENDCHAR
STARTCHAR agrave
ENCODING 136
SWIDTH 414 0
DWIDTH 5 0
BBX 6 9 0 0
BITMAP
60
20
00
20
50
10
30
D0
F8
ENDCHAR
STARTCHAR acircumflex
ENCODING 137
SWIDTH 414 0
DWIDTH 5 0
BBX 6 8 0 0
BITMAP
70
10
20
50
10
30
D0
F8
ENDCHAR
STARTCHAR adieresis
ENCODING 138
SWIDTH 414 0
DWIDTH 5 0
BBX 6 8 0 0
BITMAP
50
50
20
50
10
30
D0
F8
ENDCHAR
STARTCHAR atilde
ENCODING 139
SWIDTH 414 0
DWIDTH 5 0
BBX 6 8 0 0
BITMAP
68
30
20
50
10
30
D0
F8
ENDCHAR
STARTCHAR aring
ENCODING 140
SWIDTH 414 0
DWIDTH 5 0
BBX 6 9 0 0
BITMAP
20
50
20
20
50
10
30
D0
F8
ENDCHAR
STARTCHAR ccedilla
ENCODING 141
SWIDTH 432 0
DWIDTH 6 0
BBX 6 9 0 -3
BITMAP
10
68
40
C0
40
78
20
30
10
ENDCHAR
STARTCHAR eacute
ENCODING 142
SWIDTH 432 0
DWIDTH 6 0
BBX 6 9 0 0
BITMAP
18
10
20
30
48
F8
C0
40
70
ENDCHAR
STARTCHAR egrave
ENCODING 143
SWIDTH 432 0
DWIDTH 6 0
BBX 6 9 0 0
BITMAP
20
20
10
30
48
F8
C0
40
70
ENDCHAR
STARTCHAR ecircumflex
ENCODING 144
SWIDTH 432 0
DWIDTH 6 0
BBX 6 8 0 0
BITMAP
30
48
30
48
F8
C0
40
70
ENDCHAR
STARTCHAR edieresis
ENCODING 145
SWIDTH 432 0
DWIDTH 6 0
BBX 6 8 0 0
BITMAP
78
78
30
48
F8
C0
40
70
ENDCHAR
STARTCHAR iacute
ENCODING 146
SWIDTH 266 0
DWIDTH 3 0
BBX 4 9 0 0
BITMAP
20
60
40
40
40
40
40
40
E0
ENDCHAR
STARTCHAR igrave
ENCODING 147
SWIDTH 266 0
DWIDTH 3 0
BBX 4 9 0 0
BITMAP
C0
40
00
40
40
40
40
40
E0
ENDCHAR
STARTCHAR icircumflex
ENCODING 148
SWIDTH 266 0
DWIDTH 3 0
BBX 5 8 -1 0
BITMAP
30
48
20
20
20
20
20
70
ENDCHAR
STARTCHAR idieresis
ENCODING 149
SWIDTH 266 0
DWIDTH 3 0
BBX 5 8 -1 0
BITMAP
58
50
20
20
20
20
20
70
ENDCHAR
STARTCHAR ntilde
ENCODING 150
SWIDTH 523 0
DWIDTH 7 0
BBX 7 8 0 0
BITMAP
30
48
48
7C
44
44
44
EE
ENDCHAR
STARTCHAR oacute
ENCODING 151
SWIDTH 518 0
DWIDTH 7 0
BBX 7 10 0 -1
BITMAP
08
10
10
30
4C
44
C4
44
68
10
ENDCHAR
STARTCHAR ograve
ENCODING 152
SWIDTH 518 0
DWIDTH 7 0
BBX 7 10 0 -1
BITMAP
30
10
00
30
4C
44
C4
44
68
10
ENDCHAR
STARTCHAR ocircumflex
ENCODING 153
SWIDTH 518 0
DWIDTH 7 0
BBX 7 10 0 -1
BITMAP
10
38
08
10
6C
44
C4
44
68
10
ENDCHAR
STARTCHAR odieresis
ENCODING 154
SWIDTH 518 0
DWIDTH 7 0
BBX 7 9 0 -1
BITMAP
28
28
30
4C
44
C4
44
68
10
ENDCHAR
STARTCHAR otilde
ENCODING 155
SWIDTH 518 0
DWIDTH 7 0
BBX 7 9 0 -1
BITMAP
34
58
10
6C
44
C4
44
68
10
ENDCHAR
STARTCHAR uacute
ENCODING 156
SWIDTH 534 0
DWIDTH 7 0
BBX 7 9 0 0
BITMAP
18
10
10
4C
44
44
44
44
7E
ENDCHAR
STARTCHAR ugrave
ENCODING 157
SWIDTH 534 0
DWIDTH 7 0
BBX 7 9 0 0
BITMAP
30
10
00
4C
44
44
44
44
7E
ENDCHAR
STARTCHAR ucircumflex
ENCODING 158
SWIDTH 534 0
DWIDTH 7 0
BBX 7 9 0 0
BITMAP
10
38
08
4C
44
44
44
44
7E
ENDCHAR
STARTCHAR udieresis
ENCODING 159
SWIDTH 534 0
DWIDTH 7 0
BBX 7 8 0 0
BITMAP
28
28
4C
44
44
44
44
7E
ENDCHAR
STARTCHAR dagger
ENCODING 160
SWIDTH 523 0
DWIDTH 7 0
BBX 7 12 0 -3
BITMAP
10
10
10
FE
10
10
10
10
10
10
10
10
ENDCHAR
STARTCHAR degree
ENCODING 161
SWIDTH 415 0
DWIDTH 5 0
BBX 5 5 0 4
BITMAP
30
48
88
50
20
ENDCHAR
STARTCHAR cent
ENCODING 162
SWIDTH 447 0
DWIDTH 6 0
BBX 6 9 0 -2
BITMAP
08
18
68
50
60
60
78
40
40
ENDCHAR
STARTCHAR sterling
ENCODING 163
SWIDTH 796 0
DWIDTH 10 0
BBX 11 12 0 -3
BITMAP
01C0
0240
0400
0C00
0800
0800
1800
1000
3800
38C0
4C40
C380
ENDCHAR
STARTCHAR section
ENCODING 164
SWIDTH 491 0
DWIDTH 6 0
BBX 6 12 0 -3
BITMAP
38
40
60
A0
50
48
28
24
14
0C
48
70
ENDCHAR
STARTCHAR bullet
ENCODING 165
SWIDTH 371 0
DWIDTH 5 0
BBX 4 3 0 3
BITMAP
20
70
70
ENDCHAR
STARTCHAR paragraph
ENCODING 166
SWIDTH 480 0
DWIDTH 6 0
BBX 8 12 -1 -3
BITMAP
1E
7C
7C
7C
7C
3C
0C
0C
0C
0C
0C
08
ENDCHAR
STARTCHAR germandbls
ENCODING 167
SWIDTH 545 0
DWIDTH 7 0
BBX 7 9 0 0
BITMAP
3C
44
44
48
4C
44
46
44
FC
ENDCHAR
STARTCHAR registered
ENCODING 168
SWIDTH 796 0
DWIDTH 10 0
BBX 10 10 0 -1
BITMAP
3F00
4080
5E80
9240
9C40
9440
5280
4080
3300
0C00
ENDCHAR
STARTCHAR copyright
ENCODING 169
SWIDTH 796 0
DWIDTH 10 0
BBX 10 9 0 0
BITMAP
1F00
2080
5E80
B040
A040
B040
5A80
2480
1F00
ENDCHAR
STARTCHAR trademark
ENCODING 170
SWIDTH 1025 0
DWIDTH 13 0
BBX 14 5 0 4
BITMAP
FB18
33B0
32B0
32D0
32D0
ENDCHAR
STARTCHAR acute
ENCODING 171
SWIDTH 349 0
DWIDTH 5 0
BBX 3 2 1 7
BITMAP
60
40
ENDCHAR
STARTCHAR dieresis
ENCODING 172
SWIDTH 348 0
DWIDTH 5 0
BBX 5 2 0 6
BITMAP
50
50
ENDCHAR
STARTCHAR AE
ENCODING 174
SWIDTH 915 0
DWIDTH 12 0
BBX 13 9 -1 0
BITMAP
07F0
0510
0510
0900
09E0
1F00
2100
2100
E7F0
ENDCHAR
STARTCHAR Oslash
ENCODING 175
SWIDTH 851 0
DWIDTH 11 0
BBX 11 10 0 -1
BITMAP
0E40
3180
61C0
4240
4440
4840
7040
3080
3900
4600
ENDCHAR
STARTCHAR plusminus
ENCODING 177
SWIDTH 698 0
DWIDTH 9 0
BBX 9 9 0 0
BITMAP
0800
0800
0800
7F00
0800
0800
0800
0000
7F00
ENDCHAR
STARTCHAR yen
ENCODING 180
SWIDTH 523 0
DWIDTH 7 0
BBX 8 9 -1 0
BITMAP
72
32
7F
14
7F
08
08
08
1C
ENDCHAR
STARTCHAR mu
ENCODING 181
SWIDTH 524 0
DWIDTH 7 0
BBX 7 9 0 -3
BITMAP
4C
4C
4C
4C
4E
7E
40
C0
C0
ENDCHAR
STARTCHAR ordfeminine
ENCODING 187
SWIDTH 272 0
DWIDTH 4 0
BBX 4 4 0 5
BITMAP
60
A0
E0
E0
ENDCHAR
STARTCHAR ordmasculine
ENCODING 188
SWIDTH 360 0
DWIDTH 5 0
BBX 5 4 0 5
BITMAP
60
90
90
60
ENDCHAR
STARTCHAR ae
ENCODING 190
SWIDTH 654 0
DWIDTH 9 0
BBX 9 6 0 0
BITMAP
2600
5900
1F00
3800
5800
6E00
ENDCHAR
STARTCHAR oslash
ENCODING 191
SWIDTH 545 0
DWIDTH 7 0
BBX 7 7 0 -1
BITMAP
10
6C
4C
56
64
6C
10
ENDCHAR
STARTCHAR questiondown
ENCODING 192
SWIDTH 371 0
DWIDTH 5 0
BBX 5 9 0 -3
BITMAP
20
20
00
00
30
60
80
80
70
ENDCHAR
STARTCHAR exclamdown
ENCODING 193
SWIDTH 272 0
DWIDTH 4 0
BBX 2 9 1 -3
BITMAP
80
80
00
80
80
80
80
80
80
ENDCHAR
STARTCHAR logicalnot
ENCODING 194
SWIDTH 698 0
DWIDTH 9 0
BBX 9 4 0 2
BITMAP
7F00
0100
0100
0100
ENDCHAR
STARTCHAR florin
ENCODING 196
SWIDTH 523 0
DWIDTH 7 0
BBX 8 13 -1 -3
BITMAP
02
05
04
0C
1E
0C
08
08
18
10
10
50
60
ENDCHAR
STARTCHAR guillemotleft
ENCODING 199
SWIDTH 371 0
DWIDTH 5 0
BBX 5 6 0 0
BITMAP
20
50
50
50
50
20
ENDCHAR
STARTCHAR guillemotright
ENCODING 200
SWIDTH 371 0
DWIDTH 5 0
BBX 5 5 0 1
BITMAP
20
60
50
50
60
ENDCHAR
STARTCHAR ellipsis
ENCODING 201
SWIDTH 1056 0
DWIDTH 14 0
BBX 12 1 1 0
BITMAP
4620
ENDCHAR
STARTCHAR Agrave
ENCODING 203
SWIDTH 711 0
DWIDTH 9 0
BBX 10 11 0 0
BITMAP
0800
0000
0800
0C00
1C00
1400
1600
2A00
2200
4300
E780
ENDCHAR
STARTCHAR Atilde
ENCODING 204
SWIDTH 711 0
DWIDTH 9 0
BBX 10 11 0 0
BITMAP
1E00
2000
0800
0C00
1C00
1400
1600
2A00
2200
4300
E780
ENDCHAR
STARTCHAR Otilde
ENCODING 205
SWIDTH 827 0
DWIDTH 11 0
BBX 11 12 0 -1
BITMAP
0C00
1600
0E00
3180
6080
40C0
40C0
40C0
60C0
2080
1B00
0400
ENDCHAR
STARTCHAR OE
ENCODING 206
SWIDTH 1036 0
DWIDTH 13 0
BBX 13 9 0 0
BITMAP
0FF0
3110
6100
4110
41F0
4110
6100
2108
1FF8
ENDCHAR
STARTCHAR oe
ENCODING 207
SWIDTH 775 0
DWIDTH 10 0
BBX 10 7 0 -1
BITMAP
1100
6E80
47C0
4400
4640
2B80
1000
ENDCHAR
STARTCHAR endash
ENCODING 208
SWIDTH 610 0
DWIDTH 8 0
BBX 8 1 0 3
BITMAP
7E
ENDCHAR
STARTCHAR emdash
ENCODING 209
SWIDTH 855 0
DWIDTH 11 0
BBX 9 1 1 2
BITMAP
7F00
ENDCHAR
STARTCHAR quotedblleft
ENCODING 210
SWIDTH 502 0
DWIDTH 7 0
BBX 5 3 1 6
BITMAP
48
90
D8
ENDCHAR
STARTCHAR quotedblright
ENCODING 211
SWIDTH 501 0
DWIDTH 7 0
BBX 6 3 0 6
BITMAP
6C
24
48
ENDCHAR
STARTCHAR quoteleft
ENCODING 212
SWIDTH 272 0
DWIDTH 4 0
BBX 3 2 0 6
BITMAP
40
60
ENDCHAR
STARTCHAR quoteright
ENCODING 213
SWIDTH 272 0
DWIDTH 4 0
BBX 3 3 0 6
BITMAP
60
20
40
ENDCHAR
STARTCHAR divide
ENCODING 214
SWIDTH 699 0
DWIDTH 9 0
BBX 9 7 0 1
BITMAP
0800
0800
0000
7F00
0000
0000
0800
ENDCHAR
STARTCHAR ydieresis
ENCODING 216
SWIDTH 488 0
DWIDTH 6 0
BBX 7 11 0 -3
BITMAP
68
28
00
40
68
28
30
10
20
20
60
ENDCHAR
STARTCHAR Ydieresis
ENCODING 217
SWIDTH 729 0
DWIDTH 9 0
BBX 10 11 0 0
BITMAP
1600
1600
0000
6180
3100
1200
0C00
0C00
0C00
0C00
1E00
ENDCHAR
STARTCHAR fraction
ENCODING 218
SWIDTH 242 0
DWIDTH 3 0
BBX 6 11 -1 -3
BITMAP
08
08
10
10
20
20
20
40
40
80
80
ENDCHAR
STARTCHAR guilsinglleft
ENCODING 220
SWIDTH 880 0
DWIDTH 11 0
BBX 12 9 0 0
BITMAP
1FC0
2200
2400
66C0
7D40
6440
6440
6440
7FE0
ENDCHAR
STARTCHAR guilsinglright
ENCODING 221
SWIDTH 860 0
DWIDTH 11 0
BBX 11 9 0 0
BITMAP
1FC0
2240
2440
6440
7FC0
6440
6440
6440
FEE0
ENDCHAR
STARTCHAR fi
ENCODING 222
SWIDTH 559 0
DWIDTH 7 0
BBX 7 9 0 0
BITMAP
3C
20
60
40
7C
44
44
44
6C
ENDCHAR
STARTCHAR fl
ENCODING 223
SWIDTH 539 0
DWIDTH 7 0
BBX 7 10 0 0
BITMAP
04
3C
24
44
4C
74
44
44
44
EE
ENDCHAR
STARTCHAR daggerdbl
ENCODING 224
SWIDTH 627 0
DWIDTH 8 0
BBX 10 9 0 0
BITMAP
1FC0
2400
6400
6400
7E00
6400
6400
6400
FF00
ENDCHAR
STARTCHAR periodcentered
ENCODING 225
SWIDTH 257 0
DWIDTH 3 0
BBX 3 1 0 4
BITMAP
40
ENDCHAR
STARTCHAR quotesinglbase
ENCODING 226
SWIDTH 257 0
DWIDTH 3 0
BBX 3 3 0 -2
BITMAP
40
40
40
ENDCHAR
STARTCHAR quotedblbase
ENCODING 227
SWIDTH 473 0
DWIDTH 6 0
BBX 6 3 0 -2
BITMAP
68
28
48
ENDCHAR
STARTCHAR perthousand
ENCODING 228
SWIDTH 1047 0
DWIDTH 14 0
BBX 13 9 0 -1
BITMAP
3000
4A00
4C00
3400
0800
1778
14C8
2548
2230
ENDCHAR
STARTCHAR Acircumflex
ENCODING 229
SWIDTH 711 0
DWIDTH 9 0
BBX 10 11 0 0
BITMAP
1C00
1400
0800
0C00
1C00
1400
1600
2A00
2200
4300
E780
ENDCHAR
STARTCHAR Ecircumflex
ENCODING 230
SWIDTH 619 0
DWIDTH 8 0
BBX 8 11 0 0
BITMAP
18
24
1C
22
20
22
3E
22
20
21
FE
ENDCHAR
STARTCHAR Aacute
ENCODING 231
SWIDTH 711 0
DWIDTH 9 0
BBX 10 12 0 0
BITMAP
0C00
0800
0000
0800
0C00
1C00
1400
1600
2A00
2200
4300
E780
ENDCHAR
STARTCHAR Edieresis
ENCODING 232
SWIDTH 619 0
DWIDTH 8 0
BBX 8 11 0 0
BITMAP
24
3C
00
3E
20
22
3E
22
20
21
FE
ENDCHAR
STARTCHAR Egrave
ENCODING 233
SWIDTH 619 0
DWIDTH 8 0
BBX 8 11 0 0
BITMAP
10
08
1C
22
20
22
3E
22
20
21
FE
ENDCHAR
STARTCHAR Iacute
ENCODING 234
SWIDTH 363 0
DWIDTH 5 0
BBX 5 12 0 0
BITMAP
30
20
00
00
20
20
20
20
20
20
20
70
ENDCHAR
STARTCHAR Icircumflex
ENCODING 235
SWIDTH 362 0
DWIDTH 5 0
BBX 5 11 0 0
BITMAP
60
50
00
20
20
20
20
20
20
20
70
ENDCHAR
STARTCHAR Idieresis
ENCODING 236
SWIDTH 363 0
DWIDTH 5 0
BBX 5 11 0 0
BITMAP
50
D0
00
20
20
20
20
20
20
20
70
ENDCHAR
STARTCHAR Igrave
ENCODING 237
SWIDTH 363 0
DWIDTH 5 0
BBX 5 11 0 0
BITMAP
60
20
00
20
20
20
20
20
20
20
70
ENDCHAR
STARTCHAR Oacute
ENCODING 238
SWIDTH 827 0
DWIDTH 11 0
BBX 11 13 0 -1
BITMAP
0200
0600
0400
0E00
3180
6080
40C0
40C0
40C0
60C0
2080
1B00
0400
ENDCHAR
STARTCHAR Ocircumflex
ENCODING 239
SWIDTH 827 0
DWIDTH 11 0
BBX 11 12 0 -1
BITMAP
0E00
0A00
0E00
3180
6080
40C0
40C0
40C0
60C0
2080
1B00
0400
ENDCHAR
STARTCHAR Ograve
ENCODING 241
SWIDTH 827 0
DWIDTH 11 0
BBX 11 12 0 -1
BITMAP
0400
0000
0E00
3180
6080
40C0
40C0
40C0
60C0
2080
1B00
0400
ENDCHAR
STARTCHAR Uacute
ENCODING 242
SWIDTH 815 0
DWIDTH 11 0
BBX 11 11 0 0
BITMAP
0400
0000
6000
2080
2080
2080
2080
2080
2080
3080
1F00
ENDCHAR
STARTCHAR Ucircumflex
ENCODING 243
SWIDTH 815 0
DWIDTH 11 0
BBX 11 11 0 0
BITMAP
0E00
0A00
4000
2080
2080
2080
2080
2080
2080
3080
1F00
ENDCHAR
STARTCHAR Ugrave
ENCODING 244
SWIDTH 815 0
DWIDTH 11 0
BBX 11 11 0 0
BITMAP
0400
0400
4000
2080
2080
2080
2080
2080
2080
3080
1F00
ENDCHAR
STARTCHAR dotlessi
ENCODING 245
SWIDTH 266 0
DWIDTH 3 0
BBX 4 6 0 0
BITMAP
40
40
40
40
40
E0
ENDCHAR
STARTCHAR circumflex
ENCODING 246
SWIDTH 349 0
DWIDTH 5 0
BBX 5 2 0 6
BITMAP
60
10
ENDCHAR
STARTCHAR tilde
ENCODING 247
SWIDTH 349 0
DWIDTH 5 0
BBX 5 2 0 6
BITMAP
60
B0
ENDCHAR
STARTCHAR macron
ENCODING 248
SWIDTH 349 0
DWIDTH 5 0
BBX 5 1 0 6
BITMAP
F0
ENDCHAR
STARTCHAR breve
ENCODING 249
SWIDTH 349 0
DWIDTH 5 0
BBX 5 2 0 6
BITMAP
D0
60
ENDCHAR
STARTCHAR dotaccent
ENCODING 250
SWIDTH 349 0
DWIDTH 5 0
BBX 3 2 1 6
BITMAP
40
40
ENDCHAR
STARTCHAR ring
ENCODING 251
SWIDTH 349 0
DWIDTH 5 0
BBX 4 3 0 6
BITMAP
60
50
60
ENDCHAR
STARTCHAR cedilla
ENCODING 252
SWIDTH 349 0
DWIDTH 5 0
BBX 3 3 1 -3
BITMAP
40
C0
40
ENDCHAR
STARTCHAR hungarumlaut
ENCODING 253
SWIDTH 349 0
DWIDTH 5 0
BBX 5 3 0 6
BITMAP
50
50
A0
ENDCHAR
STARTCHAR ogonek
ENCODING 254
SWIDTH 349 0
DWIDTH 5 0
BBX 5 3 0 -3
BITMAP
40
40
20
ENDCHAR
STARTCHAR caron
ENCODING 255
SWIDTH 349 0
DWIDTH 5 0
BBX 5 3 0 6
BITMAP
80
50
60
ENDCHAR
ENDFONT
